<svg xmlns="http://www.w3.org/2000/svg" xmlns:xlink="http://www.w3.org/1999/xlink" xmlns:inkscape="http://www.inkscape.org/namespaces/inkscape" version="1.1" width="737.008" height="510.236" viewBox="715 15 1 20">
<defs>
<clipPath id="clip_1">
<path transform="matrix(1,0,0,-1,0,510.236)" d="M0 .945H368.504V510.236H0Z"/>
</clipPath>
<clipPath id="clip_3">
<path transform="matrix(1,0,0,-1,0,510.236)" d="M0 0H737.008V510.236H0Z"/>
</clipPath>
<clipPath id="clip_4">
<path transform="matrix(1,0,0,-1,0,510.236)" d="M418.819 478.503H432.284V488.794H418.819Z"/>
</clipPath>
<path id="font_5_3" d="M.40100099 .15625C.43099977 .15625 .45399986 .16174317 .47000123 .17272949 .4860026 .183726 .4940033 .19954936 .4940033 .22019959V.22219849C.4940033 .24151612 .48633323 .25683595 .47099305 .26815797 .45566307 .27949015 .43166606 .28515626 .39900209 .28515626H.25100709V.15625H.40100099M.3730011 .42089845C.40299989 .42089845 .42583213 .42589823 .4414978 .43589784 .45716349 .4459076 .46499635 .46124778 .46499635 .48191834V.48391725C.46499635 .5032654 .45766197 .5181071 .44299317 .5284424 .42833457 .53877767 .40633647 .5439453 .3769989 .5439453H.25100709V.42089845H.3730011M.06199646 .7001953H.42099C.46499635 .7001953 .5026652 .6948598 .5339966 .68418887 .56532797 .6735179 .5913289 .657842 .6119995 .63716128 .6259969 .6231537 .6369934 .6068115 .644989 .58813479 .6529948 .569458 .6569977 .54811099 .6569977 .5240936V.5220947C.6569977 .48140464 .64683029 .44854737 .62649539 .42352296 .60616049 .3985087 .58032736 .3793335 .548996 .3659973 .59166976 .3519999 .62550356 .3318329 .65049746 .30549623 .6755015 .27915956 .68800356 .24232483 .68800356 .19499207V.19299317C.68800356 .1323344 .66483566 .085001628 .61849978 .050994874 .5721639 .016998291 .5069987 0 .42300416 0H.06199646V.7001953Z"/>
<path id="font_5_4" d="M.39900209-.013671875C.34900413-.013671875 .30200196-.004679362 .2579956 .013305664 .21399944 .03130086 .17583211 .056452436 .14349365 .088760379 .11116537 .12107849 .085500087 .15938823 .0664978 .20368958 .047495527 .24799092 .037994386 .29612733 .037994386 .34809876V.35009767C.037994386 .40073649 .04732768 .44820658 .06599426 .49250794 .08466085 .53680929 .11032613 .57544967 .14299011 .60842898 .17566426 .64140829 .21449788 .66722616 .25949098 .68588259 .30449424 .704539 .35366313 .7138672 .40699769 .7138672 .44299827 .7138672 .47566224 .7103729 .5049896 .7033844 .5343272 .6963959 .5611623 .68640646 .585495 .67341616 .6098277 .660436 .63182577 .6449585 .65148928 .62698367 .6711629 .6090088 .68866476 .5893707 .70399478 .56806948L.55799868 .45510865C.53799948 .48043824 .5159963 .50043746 .49198915 .5151062 .46799217 .52977499 .43899537 .5371094 .40499879 .5371094 .3803304 .5371094 .35782878 .53227236 .3374939 .52259829 .3171692 .5129344 .29967246 .49976603 .28500367 .48309327 .27033488 .46643067 .25883485 .44676719 .25050355 .42410279 .24217224 .4014384 .23800659 .3774363 .23800659 .35209657V.35009767C.23800659 .32409669 .24217224 .29959617 .25050355 .27659608 .25883485 .25359599 .27033488 .23375957 .28500367 .21708679 .29967246 .2004242 .3171692 .18725586 .3374939 .17758179 .35782878 .16791789 .3803304 .16308594 .40499879 .16308594 .42300416 .16308594 .439504 .16508484 .4544983 .16908264 .46950279 .17309062 .48316957 .17892456 .49549867 .18658448 .50783798 .19425456 .5195058 .20325725 .5305023 .21359253 .54149886 .22392781 .5523326 .23542786 .56300356 .24809265L.70899966 .14411927C.69233706 .12147522 .6741689 .10049947 .65449526 .08119202 .6348317 .061884565 .612498 .04524231 .5874939 .03126526 .5625 .017288208 .5345001 .0063069665 .50349429-.0016784668 .47249858-.009674072 .43766786-.013671875 .39900209-.013671875Z"/>
<path id="font_5_2" d="M.47399903 .27539063 .3959961 .47439576 .31700135 .27539063H.47399903M.30400086 .7050781H.4909973L.78900149 0H.58099368L.5299988 .125H.2599945L.21000672 0H.005996704L.30400086 .7050781Z"/>
<path id="font_5_5" d="M.23300171 .53027346H.022994996V.7001953H.6369934V.53027346H.42700196V0H.23300171V.53027346Z"/>
<path id="font_5_1" d="M.16299439 .5240631 .04499817 .49705506 .0079956059 .6470642 .21299744 .7050781H.3540039V0H.16299439V.5240631Z"/>
<clipPath id="clip_6">
<path transform="matrix(1,0,0,-1,0,510.236)" d="M0 0H737.008V510.236H0Z"/>
</clipPath>
</defs>
<g clip-path="url(#clip_3)">
<path transform="matrix(1,0,0,-1,0,510.236)" d="M372.504 4H733.008V506.236H372.504Z" fill="#d2232a"/>
<path transform="matrix(1,0,0,-1,0,510.236)" stroke-width="8" stroke-linecap="butt" stroke-miterlimit="4" stroke-linejoin="miter" fill="none" stroke="#ffffff" d="M372.504 4H733.008V506.236H372.504Z"/>
<path transform="matrix(1,0,0,-1,0,510.236)" d="M720 485.2277C720 480.6877 716.32 477.0067 711.78 477.0067 707.24 477.0067 703.559 480.6877 703.559 485.2277 703.559 489.7677 707.24 493.4477 711.78 493.4477 716.32 493.4477 720 489.7677 720 485.2277" fill="#ffffff"/>
<path transform="matrix(1,0,0,-1,0,510.236)" d="M708.0583 485.7252 710.5223 487.7502 713.7793 483.7582ZM705.2833 485.1622 718.2763 480.6952 710.8783 489.7602Z" fill="#231f20"/>
<path transform="matrix(1,0,0,-1,0,510.236)" d="M710.0342 23.0682V22.6082H711.7442V16.0682H712.2542V23.0682ZM713.8142 23.0682V21.2682H714.3142V22.6082H718.2442L715.2642 16.0682H715.8242L718.8342 22.7082V23.0682Z" fill="#ffffff"/>
</g>
</svg>